<svg xmlns="http://www.w3.org/2000/svg" fill-rule="evenodd" clip-rule="evenodd" image-rendering="optimizeQuality" shape-rendering="geometricPrecision" text-rendering="geometricPrecision" viewBox="0 0 1707 1707"><path fill="#f4a996" fill-rule="nonzero" d="M185 838l0 495 1056 0c17,0 32,-7 43,-18l0 1c11,-11 17,-26 17,-43l0 -375c0,-16 -6,-31 -17,-42l0 0c-11,-11 -26,-18 -43,-18l-1056 0zm140 367l-63 -238 33 0c14,60 36,146 46,205 19,-81 35,-129 56,-205l38 0c17,59 44,147 53,205 11,-58 34,-146 49,-205l32 0 -66 238 -30 0c-15,-52 -47,-163 -58,-209 -14,61 -40,146 -57,209l-33 0zm274 0l0 -238 172 0 0 28 -141 0 0 73 132 0 0 28 -132 0 0 81 146 0 0 28 -177 0zm220 0l0 -238c33,0 107,-4 133,7 41,18 51,79 2,104 63,19 58,107 -6,123 -25,6 -100,4 -129,4zm31 -138c33,0 85,6 100,-15 11,-15 8,-46 -16,-54 -15,-4 -64,-3 -84,-3l0 72zm0 110c28,0 80,4 99,-8 23,-14 24,-59 -9,-70 -18,-6 -68,-4 -90,-4l0 82zm192 28l0 -238c26,0 104,-2 126,2 65,11 67,84 36,118 -25,27 -87,21 -131,21l0 97 -31 0zm31 -125c31,0 87,5 105,-11 21,-19 17,-64 -14,-72 -13,-3 -74,-2 -91,-2l0 85z"/><path fill="#368498" d="M1062 0l-776 0c-56,0 -101,46 -101,101l0 697 1056 0c28,0 53,12 71,30l0 0c18,18 29,43 29,70l0 375c0,28 -11,53 -29,71l0 0c-18,18 -43,29 -71,29l-1056 0 0 232c0,28 11,54 29,72l0 0c19,18 44,30 72,30l1135 0c28,0 53,-12 71,-30l0 0c19,-19 30,-44 30,-72l0 -1145c-6,2 -13,3 -20,3l-302 0c-78,0 -141,-63 -141,-141l0 -302c0,-7 1,-14 3,-20zm-730 669c-26,0 -26,40 0,40l861 0c27,0 27,-40 0,-40l-861 0zm0 -153c-26,0 -26,40 0,40l861 0c27,0 27,-40 0,-40l-861 0z"/><path fill="#f4a996" fill-rule="nonzero" d="M1133 6l383 383c13,13 4,34 -14,34l0 0 -302 0c-56,0 -101,-45 -101,-101l0 -302c0,-18 22,-27 34,-14z"/></svg>